<svg xmlns="http://www.w3.org/2000/svg" enable-background="new 0 0 512 512" viewBox="0 0 512 512" id="Diamond"><path d="M391.3,73c-1.6-2.8-4.6-4.2-7.5-4c-0.2,0-0.4,0-0.6,0H132.3c-0.2,0-0.4,0-0.5,0c-3-0.2-5.9,1.2-7.5,4L61,182.6
	c-1.5,2.6-1.4,5.7,0.1,8.2l189.9,305.6c1.5,2.4,4,3.8,6.8,3.8c0,0,0,0,0,0c2.8,0,5.3-1.4,6.8-3.8l189.7-305.6
	c1.6-2.5,1.6-5.7,0.1-8.2L391.3,73z M311,194.6l-53.2,258.6l-53.6-258.6H311z M208.4,178.6l49.4-85.6l49.4,85.6H208.4z M271.6,85.1
	h98.8l-49.4,85.6L271.6,85.1z M194.5,170.6l-49.4-85.6h98.8L194.5,170.6z M240.7,449.4L82.4,194.6h105.5L240.7,449.4z M327.4,194.6
	h105.8L275,449.6L327.4,194.6z M433.7,178.6h-98.8l49.4-85.6L433.7,178.6z M131.2,93.1l49.4,85.6H81.8L131.2,93.1z M22.2,103.5H8
	c-4.4,0-8-3.6-8-8s3.6-8,8-8h14.2V73.2c0-4.4,3.6-8,8-8s8,3.6,8,8v14.2h14.2c4.4,0,8,3.6,8,8s-3.6,8-8,8H38.3v14.2c0,4.4-3.6,8-8,8
	s-8-3.6-8-8V103.5z M442.5,437.9c0,4.4-3.6,8-8,8h-14.2v14.2c0,4.4-3.6,8-8,8s-8-3.6-8-8v-14.2H390c-4.4,0-8-3.6-8-8s3.6-8,8-8h14.2
	v-14.2c0-4.4,3.6-8,8-8s8,3.6,8,8v14.2h14.2C438.9,429.9,442.5,433.5,442.5,437.9z M113.9,352.1l-26.4-11.9l-11.9-26.4
	c-1.3-2.9-4.2-4.7-7.3-4.7s-6,1.8-7.3,4.7L49,340.2l-26.4,11.9c-2.9,1.3-4.7,4.1-4.7,7.3c0,3.1,1.8,6,4.7,7.3L49,378.6L61,405
	c1.3,2.9,4.2,4.7,7.3,4.7s6-1.8,7.3-4.7l11.9-26.4l26.4-11.9c2.9-1.3,4.7-4.2,4.7-7.3C118.6,356.2,116.7,353.4,113.9,352.1z
	 M78.1,365.3c-1.8,0.8-3.2,2.2-4,4l-5.9,13l-5.9-13c-0.8-1.8-2.2-3.2-4-4l-13-5.9l13-5.9c1.8-0.8,3.2-2.2,4-4l5.9-13l5.9,13
	c0.8,1.8,2.2,3.2,4,4l13,5.9L78.1,365.3z M507.3,54.8l-26.4-11.9L469,16.5c-1.3-2.9-4.2-4.7-7.3-4.7s-6,1.8-7.3,4.7l-11.9,26.4
	L416,54.8c-2.9,1.3-4.7,4.2-4.7,7.3c0,3.1,1.8,6,4.7,7.3l26.4,11.9l11.9,26.4c1.3,2.9,4.2,4.7,7.3,4.7s6-1.8,7.3-4.7l11.9-26.4
	l26.4-11.9c2.9-1.3,4.7-4.1,4.7-7.3C512,59,510.2,56.1,507.3,54.8z M471.6,68c-1.8,0.8-3.2,2.2-4,4l-5.9,13l-5.9-13
	c-0.8-1.8-2.2-3.2-4-4l-13-5.9l13-5.9c1.8-0.8,3.2-2.2,4-4l5.9-13l5.9,13c0.8,1.8,2.2,3.2,4,4l13,5.9L471.6,68z" fill="#ffffff" class="color000000 svgShape"></path></svg>