<svg xmlns="http://www.w3.org/2000/svg" fill="none" viewBox="0 0 128 128" id="Guarantee"><path stroke="#ffffff" stroke-width="5" d="M34.147 27.5091C34.2225 26.6335 34.9096 25.9351 35.7839 25.8453L37.4921 25.67C54.7852 23.8946 72.2147 23.8946 89.5079 25.6699L91.2161 25.8453C92.0904 25.9351 92.7775 26.6335 92.853 27.5091V27.5091C94.9471 51.7913 94.9471 76.2087 92.853 100.491V100.491C92.7775 101.367 92.0904 102.065 91.2161 102.155L89.5079 102.33C72.2147 104.105 54.7853 104.105 37.4921 102.33L35.7839 102.155C34.9096 102.065 34.2225 101.367 34.147 100.491V100.491C32.0529 76.2087 32.0529 51.7913 34.147 27.5091V27.5091Z" class="colorStroke000000 svgStroke"></path><path stroke="#ffffff" stroke-width="5" d="M50.9916 36.33C50.9961 36.3077 51.0188 36.294 51.0407 36.3004L54.2965 37.2616C56.1943 37.8218 58.234 37.6401 60.0029 36.7533V36.7533C62.2037 35.6499 64.7963 35.6499 66.9971 36.7533V36.7533C68.766 37.6401 70.8057 37.8218 72.7035 37.2616L75.9593 36.3004C75.9812 36.294 76.0039 36.3077 76.0084 36.33V36.33C77.3229 42.8625 77.321 49.6009 76.0065 56.1334V56.1334C76.0022 56.1547 75.9944 56.1751 75.9834 56.1937L75.5764 56.8843C73.1602 60.9847 70.0419 64.6282 66.3637 67.6485L65.0865 68.6972C64.1644 69.4545 62.8356 69.4545 61.9135 68.6972L60.6363 67.6485C56.9581 64.6282 53.8397 60.9847 51.4236 56.8843L51.0166 56.1937C51.0056 56.1751 50.9978 56.1547 50.9935 56.1334V56.1334C49.679 49.6009 49.6771 42.8625 50.9916 36.33V36.33Z" class="colorStroke000000 svgStroke"></path><path stroke="#ffffff" stroke-linecap="round" stroke-width="5" d="M43 81V81C56.6343 82.3302 70.3657 82.3302 84 81V81M43 91V91C56.6343 92.3302 70.3657 92.3302 84 91V91" class="colorStroke000000 svgStroke"></path><path stroke="#ffffff" stroke-linecap="round" stroke-linejoin="round" stroke-width="5" d="M58 50.336L61.7795 54L69 47" class="colorStroke000000 svgStroke"></path></svg>