<svg xmlns="http://www.w3.org/2000/svg" viewBox="0 0 64 64" id="running"><path d="M42 13c2.8 0 5-2.2 5-5V6c0-2.8-2.2-5-5-5s-5 2.2-5 5v2c0 2.8 2.2 5 5 5zM27.8 59.8l6.9-19.1s-3.2-.5-4.1-1.5l-6.4 19.3c-.2.6-.3 2.3 1.8 2.5.8.1 1.5-.5 1.8-1.2z" fill="#ffffff" class="color000000 svgShape"></path><path d="M21.1 22.8c-.3.2-.6.8-.2 1.4.4.6 1.2.5 1.5.2l7.3-5.5H38c.5 0 1 .5 1 1s-.5 1-1 1h-2.8l-4.6 12.7c-.3.9-.5 3.7 2.4 4.5L44.2 41c1 .3.8 1 .7 1.2L42 52.5c-.2.6-.2 2.2 1.9 2.5.8.1 1.6-.5 1.8-1.3l4.4-13.2c.3-1-.2-2.1-1.2-2.4L39.7 35c-.5-.2-.8-.7-.6-1.3L43 22c.4-1.2.2-2.4-.5-3.4S40.7 17 39.4 17h-9.8c-.8 0-1.5.3-2.2.8l-6.3 5z" fill="#ffffff" class="color000000 svgShape"></path><path d="m57.9 25.4-8.4 1.5-4.8-3.9-.9 2.6 3.5 2.6c.6.4 1.3.6 2 .5l8.8-1.5c.5-.1.8-.5.8-.9 0-.8-.6-.9-1-.9zM62 61h-2c-.6 0-1 .4-1 1s.4 1 1 1h2c.6 0 1-.4 1-1s-.4-1-1-1zm-6 0H36c-.6 0-1 .4-1 1s.4 1 1 1h20c.6 0 1-.4 1-1s-.4-1-1-1zM2 61c-.5 0-1 .5-1 1s.5 1 1 1h30c.5 0 1-.5 1-1s-.5-1-1-1H2zm21-25c0-.6-.4-1-1-1H12c-.6 0-1 .4-1 1s.4 1 1 1h10c.6 0 1-.4 1-1zM3.9 29H18c.6 0 1-.4 1-1s-.4-1-1-1H3.9c-.6 0-1 .4-1 1s.4 1 1 1zm4-8H14c.6 0 1-.4 1-1s-.4-1-1-1H7.9c-.6 0-1 .4-1 1s.4 1 1 1zM18 13h10c.6 0 1-.4 1-1s-.4-1-1-1H18c-.6 0-1 .4-1 1s.4 1 1 1zM6 43c-.6 0-1 .4-1 1s.4 1 1 1h10c.6 0 1-.4 1-1s-.4-1-1-1H6z" fill="#ffffff" class="color000000 svgShape"></path></svg>